<svg xmlns="http://www.w3.org/2000/svg" width="71" height="92" viewBox="0 0 71 92" fill="none">
<path d="M35.499 0C35.499 0 15.8732 13.7306 15.8732 47.4598C15.8732 69.0922 23.1289 82.6173 32.5765 84.9292V63.1562C32.5765 61.7017 33.8838 60.5211 35.499 60.5211C37.1142 60.5211 38.4215 61.7017 38.4215 63.1562V84.9292C47.8691 82.619 55.1248 69.0922 55.1248 47.4598C55.1248 13.3406 35.499 0 35.499 0ZM35.2691 26.0312C31.9004 26.0312 28.6096 25.7589 25.6949 25.2618C28.5492 16.9683 32.5745 11.3819 35.536 8.11434C38.4897 11.3415 42.4956 16.8787 45.3304 25.181C42.3027 25.7326 38.8346 26.0312 35.2691 26.0312Z" fill="white"/>
<path d="M10.6068 62.371C4.74814 62.371 0 66.0268 0 70.5363V92.0001L19.2147 79.1829C16.3642 74.7981 14.2347 69.1046 12.978 62.371H10.6068Z" fill="white"/>
<path d="M60.3912 62.371H58.022C56.7653 69.1046 54.6357 74.7981 51.7853 79.1829L71 92.0001V70.5363C70.998 66.0268 66.2499 62.371 60.3912 62.371Z" fill="white"/>
</svg>